<?xml version="1.0" encoding="utf-8"?>
<!-- Generator: Adobe Illustrator 22.0.1, SVG Export Plug-In . SVG Version: 6.00 Build 0)  -->
<svg version="1.1" id="Layer_1" xmlns="http://www.w3.org/2000/svg" xmlns:xlink="http://www.w3.org/1999/xlink" x="0px" y="0px"
	 viewBox="0 0 50 50" style="enable-background:new 0 0 50 50;" xml:space="preserve">
<style type="text/css">
	.st0{fill:#FEE573;}
	.st1{fill:#E6E6E6;}
	.st2{fill:#E5E3E3;}
	.st3{fill:#999999;}
	.st4{fill:#CCCCCC;}
	.st5{fill:none;stroke:#CCCCCC;stroke-width:4;stroke-linecap:round;stroke-miterlimit:10;}
	.st6{fill:#4E60A0;}
	.st7{fill:#B3B3B3;}
	.st8{fill:#BCCECB;}
	.st9{fill:#FFFF00;}
	.st10{fill:none;}
	.st11{fill:#666666;}
	.st12{fill:#FFFFFF;}
</style>
<g>
	<path class="st0" d="M25.1,37.3c-6.7,0-12.1-5.4-12.1-12.1s5.4-12.1,12.1-12.1c6.7,0,12.1,5.4,12.1,12.1S31.8,37.3,25.1,37.3z
		 M25.1,17c-4.5,0-8.1,3.7-8.1,8.1s3.7,8.1,8.1,8.1c4.5,0,8.1-3.7,8.1-8.1S29.6,17,25.1,17z"/>
	<path class="st0" d="M25.1,10c-1.1,0-2-0.9-2-2V2.3c0-1.1,0.9-2,2-2c1.1,0,2,0.9,2,2V8C27.1,9.1,26.2,10,25.1,10z"/>
	<path class="st0" d="M37.4,15.2c-0.5,0-1-0.2-1.4-0.6c-0.8-0.8-0.7-2,0-2.8l4.1-4c0.8-0.8,2-0.7,2.8,0s0.7,2,0,2.8l-4.1,4
		C38.4,15,37.9,15.2,37.4,15.2z"/>
	<path class="st0" d="M48,27.7C48,27.7,48,27.7,48,27.7l-5.8-0.1c-1.1,0-2-0.9-1.9-2c0-1.1,0.9-2,2-1.9l5.7,0.1c1.1,0,2,0.9,1.9,2
		C50,26.8,49.1,27.7,48,27.7z"/>
	<path class="st0" d="M40.7,43.9c-0.5,0-1.1-0.2-1.5-0.6l-3.9-4.2c-0.7-0.8-0.7-2.1,0.1-2.8c0.8-0.7,2.1-0.7,2.8,0.1l3.9,4.2
		c0.7,0.8,0.7,2.1-0.1,2.8C41.7,43.7,41.2,43.9,40.7,43.9z"/>
	<path class="st0" d="M24,50C24,50,24,50,24,50c-1.2-0.1-2-1-2-2.1l0.3-5.7c0.1-1.1,1-1.9,2.1-1.9c1.1,0.1,1.9,1,1.9,2.1L26,48.1
		C26,49.2,25.1,50,24,50z"/>
	<path class="st0" d="M8,42.3c-0.5,0-1.1-0.2-1.5-0.7c-0.7-0.8-0.6-2.1,0.2-2.8l4.3-3.8c0.8-0.7,2.1-0.6,2.8,0.2
		c0.7,0.8,0.6,2.1-0.2,2.8l-4.3,3.8C8.9,42.1,8.5,42.3,8,42.3z"/>
	<path class="st0" d="M8,25.9c0,0-0.1,0-0.1,0l-5.7-0.4c-1.1-0.1-1.9-1-1.8-2.1c0.1-1.1,1-1.9,2.1-1.8l5.7,0.4
		c1.1,0.1,1.9,1,1.8,2.1C9.9,25.1,9.1,25.9,8,25.9z"/>
	<path class="st0" d="M14.1,14c-0.6,0-1.1-0.2-1.5-0.7L8.9,8.9C8.2,8.1,8.3,6.9,9.1,6.2c0.8-0.7,2.1-0.6,2.8,0.2l3.7,4.4
		c0.7,0.8,0.6,2.1-0.2,2.8C15,13.9,14.5,14,14.1,14z"/>
</g>
</svg>
